<?xml version="1.0" encoding="UTF-8"?>
<svg width="32px" height="32px" viewBox="0 0 32 32" version="1.1" xmlns="http://www.w3.org/2000/svg" xmlns:xlink="http://www.w3.org/1999/xlink">
    <!-- Generator: Sketch 53 (72520) - https://sketchapp.com -->
    <title>Engagement-Icon</title>
    <desc>Created with Sketch.</desc>
    <g id="Page-1" stroke="none" stroke-width="1" fill="none" fill-rule="evenodd">
        <path d="M14.3526822,8.11092723 C11.0446372,8.39370935 8.41618897,11.0090807 8.11691149,14.3156742 C7.87359503,17.5412131 9.94744435,20.4877861 13.0658717,21.3472712 C13.76422,21.5591706 14.1673867,22.2880663 13.9757372,22.9922411 C13.7840878,23.696416 13.0671355,24.1204582 12.3577212,23.9492184 C7.99194144,22.7516192 5.08515493,18.6305625 5.42189312,14.1160432 C5.84005594,9.47925724 9.5274972,5.81229228 14.1665398,5.41995543 C18.7410895,5.08989255 22.8900461,8.09815643 23.9983661,12.5486702 C24.1592397,13.2635796 23.7199189,13.9761555 23.0089257,14.1535373 C22.2979325,14.3309192 21.5753765,13.9082135 21.3815815,13.2015175 C20.5865598,10.0223178 17.6212574,7.87473556 14.3526822,8.11092723 Z M13.6269966,26.9194038 L13.6283455,26.9059152 C14.3732992,26.9431629 14.9470083,27.5772625 14.9097606,28.3222162 C14.8725129,29.0671699 14.2384134,29.640879 13.4934597,29.6036313 C13.4489473,29.6036313 13.404435,29.6036313 13.3585739,29.6036313 C5.62471828,28.8058231 -0.192561696,22.1905769 0.00487921165,14.4181874 C0.313987342,6.59048562 6.5884057,0.315479991 14.4160786,0.00563923935 C22.1939716,-0.206998139 28.8180824,5.61807714 29.6015224,13.3593339 C29.6760178,14.1005628 29.1355234,14.7618381 28.3942945,14.8363334 C27.6530655,14.9108288 26.9917903,14.3703345 26.9172949,13.6291055 C26.2654152,7.30045689 20.8516556,2.54020374 14.4916146,2.70335533 C8.0872389,2.95530932 2.95320044,8.08934779 2.70124644,14.4937235 C2.5387535,20.8535257 7.29866911,26.2669014 13.6269966,26.9194038 Z M31.6382981,28.3249139 C31.8698405,28.5555042 32,28.8688239 32,29.1956018 C32,29.5223797 31.8698405,29.8356993 31.6382981,30.0662896 L30.0628319,31.6417558 C29.5819256,32.1225302 28.8023624,32.1225302 28.3214561,31.6417558 L23.2699828,26.5889336 C23.1991871,26.5184631 23.1007916,26.4830064 23.0013178,26.4921205 C22.901844,26.5012346 22.81153,26.5539814 22.754719,26.6361436 L20.5574292,29.8086577 C20.2879175,30.1975567 19.819426,30.3976562 19.3521207,30.3234624 C18.8848153,30.2492687 18.5013392,29.913903 18.3655349,29.4606524 L14.1206787,15.3084338 C14.0198288,14.9726242 14.111669,14.6085606 14.3597402,14.3607714 C14.6078113,14.1129822 14.971979,14.0215559 15.3076737,14.1227875 L29.4598923,18.3689927 C29.9129504,18.5051333 30.2479775,18.8887632 30.3218769,19.3560262 C30.3957764,19.8232892 30.1954841,20.2915819 29.8065489,20.560887 L26.6340347,22.7568279 C26.5516528,22.8135551 26.4988412,22.9040486 26.4899736,23.0036785 C26.481106,23.1033084 26.5171053,23.2017066 26.5881736,23.2720917 L31.6382981,28.3249139 Z" id="Engagement-Icon" fill="#FFFFFF" fill-rule="nonzero"></path>
    </g>
</svg>